<svg version="1.1" id="Layer_1" xmlns="http://www.w3.org/2000/svg" xmlns:xlink="http://www.w3.org/1999/xlink" x="0px" y="0px"
	 width="100%" viewBox="0 0 817 654" enable-background="new 0 0 817 654" xml:space="preserve">
<path fill="#18202A" opacity="1.000000" stroke="none" 
	d="
M816.000000,655.000000 
	C544.410339,655.000000 272.820679,655.000000 1.000000,655.000000 
	C1.000000,437.638702 1.000000,220.277298 1.468410,2.474279 
	C273.277374,2.032653 544.617920,2.032653 816.125854,2.032653 
	C816.125854,3.736543 816.125793,4.730919 816.125854,5.725296 
	C816.128967,55.041973 816.132996,104.358650 816.135193,153.675323 
	C816.140625,277.133636 816.158508,400.591919 816.143066,524.050232 
	C816.137573,567.700134 816.050049,611.350098 816.000000,655.000000 
M381.319885,197.820694 
	C390.010803,189.124176 398.701721,180.427658 407.441956,171.681808 
	C411.387390,175.548584 415.012024,179.100952 417.932861,181.963577 
	C393.272888,206.841095 368.823059,231.506607 345.449097,255.086777 
	C341.740479,251.966919 337.852356,248.696045 333.921326,245.389099 
	C335.404602,243.536148 336.707245,241.908844 337.409851,241.031097 
	C334.343994,237.562866 331.635406,234.498779 329.667511,232.272614 
	C324.839600,236.936752 320.118622,241.497604 314.626984,246.802979 
	C321.368164,253.019531 328.323700,259.433777 335.198883,265.773926 
	C331.031250,270.119476 327.507690,273.793518 324.368958,277.066254 
	C313.500488,266.367493 302.872101,255.905075 292.565247,245.759155 
	C303.043732,235.196182 313.542542,224.612732 324.813934,213.250504 
	C333.199127,221.788376 341.651184,230.394287 349.466492,238.351898 
	C352.935455,235.444870 356.089020,232.802185 358.896912,230.449173 
	C346.820038,218.353546 335.213898,206.729370 324.143402,195.641693 
	C307.409882,212.353760 290.507416,229.234558 274.291229,245.429947 
	C290.797058,261.998016 307.653107,278.917603 324.980072,296.309906 
	C331.224274,289.931549 337.834564,283.179230 345.068939,275.789398 
	C365.997223,297.002411 386.634430,317.920410 407.336548,338.904175 
	C426.408630,319.513214 444.830780,300.783020 463.157013,282.150360 
	C460.666046,279.469360 457.786682,276.370361 454.016235,272.312317 
	C438.444153,288.393860 423.288086,304.045776 408.425415,319.394684 
	C404.328186,315.374023 400.701904,311.815521 397.905762,309.071655 
	C422.293762,284.463867 446.724304,259.813141 470.970428,235.348495 
	C474.387421,238.528763 478.018402,241.908218 481.794067,245.422318 
	C480.293823,247.281036 478.967468,248.924301 477.337280,250.944031 
	C480.447449,254.009888 483.442657,256.962433 485.703522,259.191071 
	C490.684692,254.278900 495.371429,249.657089 500.812469,244.291397 
	C494.302551,238.081833 487.468567,231.563126 480.854553,225.254242 
	C484.668884,221.195969 488.131378,217.512100 491.304077,214.136490 
	C502.037842,224.812790 512.608276,235.326660 522.671692,245.336227 
	C512.378540,255.953842 501.987946,266.671936 491.016754,277.988953 
	C482.607727,269.260101 474.309357,260.646088 465.810150,251.823593 
	C462.330200,255.255539 459.409424,258.136017 456.742889,260.765778 
	C468.688843,272.704895 480.312927,284.322388 491.677826,295.680817 
	C508.176666,279.163391 525.082581,262.238434 541.687683,245.614609 
	C525.072083,228.986099 508.164948,212.065796 490.576599,194.463745 
	C484.191589,201.113358 477.541260,208.039322 470.244263,215.638718 
	C449.252686,194.309006 428.711090,173.436584 408.918335,153.325027 
	C389.825897,172.453537 371.194092,191.120575 352.861420,209.487885 
	C355.134644,211.918442 357.922699,214.899475 361.035919,218.228165 
	C367.692841,211.531815 374.257935,204.927811 381.319885,197.820694 
M335.982452,297.577301 
	C333.740631,299.015930 331.498840,300.454590 329.708832,301.603302 
	C356.710602,328.902161 382.109436,354.580505 407.553894,380.304932 
	C433.116699,354.382660 458.572174,328.569214 483.828125,302.958130 
	C481.588074,300.494507 478.740112,297.362366 475.115967,293.376587 
	C452.328827,316.364166 429.971771,338.917877 406.882721,362.210083 
	C384.357666,339.515289 361.972900,316.961884 339.488373,294.307953 
	C338.417175,295.291962 337.442352,296.187408 335.982452,297.577301 
M449.376007,152.124130 
	C435.704956,138.265335 422.033905,124.406532 408.182831,110.365234 
	C406.381683,112.050995 405.159515,113.132133 404.006958,114.282928 
	C382.075714,136.180634 360.149445,158.083282 338.229431,179.992218 
	C329.343964,188.873230 329.351868,188.881134 340.046722,197.242874 
	C362.312347,174.689240 384.629730,152.083191 407.935913,128.475555 
	C430.998230,151.866760 453.370789,174.558380 475.165283,196.663696 
	C478.710754,193.531036 481.781342,190.817947 484.738800,188.204865 
	C484.415710,187.519470 484.344574,187.156296 484.127533,186.938538 
	C472.718597,175.492188 461.297363,164.058121 449.376007,152.124130 
M290.747467,476.455658 
	C300.669098,476.239105 306.514954,470.522278 306.671539,460.561371 
	C306.789154,453.076202 306.670349,445.584625 306.521179,438.098602 
	C306.335358,428.772522 300.428131,422.620697 291.847137,422.636230 
	C283.287292,422.651733 277.230499,428.910400 277.080566,438.072571 
	C276.958008,445.559967 276.950012,453.050354 276.988647,460.538940 
	C277.032562,469.054962 281.384125,474.323059 290.747467,476.455658 
M325.296967,425.763916 
	C316.721832,434.309967 318.119141,446.047516 328.453186,452.228851 
	C331.450531,454.021729 334.794006,455.425842 337.328827,457.724823 
	C338.670410,458.941559 339.452423,461.944672 338.939697,463.685516 
	C338.487671,465.220337 335.686462,467.263123 334.282837,467.018097 
	C332.474091,466.702362 330.695648,464.545624 329.532898,462.770050 
	C328.728699,461.541962 328.987854,459.617554 328.764771,457.951721 
	C325.650879,457.951721 322.781433,457.951721 319.853546,457.951721 
	C319.759338,459.203369 319.623108,460.029297 319.646851,460.850647 
	C319.879578,468.913483 324.879608,475.212341 331.905060,476.331787 
	C339.245422,477.501404 346.083435,473.427856 348.449921,466.475616 
	C350.969971,459.072205 348.340881,452.815643 340.845551,448.476959 
	C338.397858,447.060089 335.643158,446.035156 333.511566,444.253540 
	C331.732025,442.766113 329.949402,440.602814 329.436951,438.438446 
	C328.670105,435.199646 330.370941,432.380402 333.919983,431.867249 
	C337.366028,431.369049 339.053040,433.731323 339.613525,436.837372 
	C339.876373,438.294037 339.757080,439.822113 339.785095,441.318298 
	C339.849274,444.742249 342.395569,444.164825 344.470612,444.141479 
	C346.501984,444.118652 349.031494,444.862427 349.228180,441.402130 
	C349.596283,434.926300 348.525360,428.982208 342.695099,425.116699 
	C337.135162,421.430389 331.433899,421.656128 325.296967,425.763916 
M552.150024,448.912445 
	C550.941895,441.850037 549.456299,434.820435 548.616455,427.714478 
	C547.983887,422.362671 544.302979,423.873627 541.222351,423.633362 
	C538.008057,423.382660 535.654663,423.542114 535.003723,427.852081 
	C533.188354,439.870544 530.843689,451.809143 528.703735,463.778503 
	C528.043762,467.470001 527.370239,471.159119 526.612488,475.349335 
	C531.177734,474.966278 535.883911,477.730103 537.189148,470.960541 
	C537.296387,470.404602 546.054810,470.468750 546.180054,471.125183 
	C547.532898,478.213593 552.291809,474.738312 556.737915,475.331024 
	C555.179688,466.367981 553.736267,458.064941 552.150024,448.912445 
M264.480316,443.759521 
	C265.914124,433.558472 262.974976,426.145142 255.471329,424.572693 
	C249.003784,423.217377 242.139160,423.756958 234.990952,423.438324 
	C234.990952,440.236389 235.074112,455.887817 234.928802,471.537140 
	C234.895096,475.165405 236.660934,475.554413 239.575470,475.519623 
	C242.535614,475.484253 244.824265,475.428284 244.586884,471.379089 
	C244.308395,466.628510 244.521698,461.849091 244.521698,457.219360 
	C259.245239,454.714600 261.147858,453.462402 264.480316,443.759521 
M444.387939,423.649536 
	C439.091370,423.649536 433.794800,423.649536 428.240753,423.649536 
	C428.240753,441.088593 428.240753,457.983795 428.240753,474.985077 
	C431.373260,474.985077 434.229095,474.985077 437.489075,474.985077 
	C437.489075,467.753815 437.489075,460.983307 437.489075,453.552765 
	C442.780823,453.552765 447.676666,453.552765 452.754150,453.552765 
	C452.754150,450.286591 452.754150,447.691254 452.754150,444.575317 
	C450.692535,444.575317 448.891388,444.580597 447.090332,444.574402 
	C436.651764,444.538605 436.648346,444.537415 437.586853,433.863800 
	C437.610901,433.590179 437.922424,433.341827 438.566132,432.398315 
	C442.968994,432.398315 447.834717,432.398315 452.649933,432.398315 
	C452.649933,429.139740 452.649933,426.581665 452.649933,423.650787 
	C449.969055,423.650787 447.656403,423.650787 444.387939,423.649536 
M490.108093,438.870544 
	C491.704926,434.035309 493.301727,429.200043 494.915527,424.313446 
	C486.165741,422.686340 486.064880,422.744476 484.004517,430.100922 
	C483.421356,432.183014 482.904358,434.287994 482.214294,436.334351 
	C481.760193,437.681061 481.050751,438.941681 479.925049,441.399292 
	C478.678772,436.739990 477.858032,433.563507 476.978210,430.403473 
	C474.813110,422.627563 474.443390,422.425598 466.000580,424.486389 
	C471.444580,440.948822 478.617310,457.092865 475.260345,475.090607 
	C479.140320,475.090607 481.876831,475.090607 485.167511,475.090607 
	C484.783478,462.784454 484.451782,450.773102 490.108093,438.870544 
M365.720093,432.672729 
	C367.140717,432.796112 368.561371,432.919495 370.372742,433.076813 
	C370.372742,447.248444 370.372742,461.000641 370.372742,475.112640 
	C373.684021,475.112640 376.561066,475.112640 379.932373,475.112640 
	C379.932373,460.876007 379.932373,446.986145 379.932373,432.945038 
	C383.329041,432.737061 386.245544,432.558472 389.423676,432.363861 
	C389.423676,429.415344 389.423676,426.829865 389.423676,423.995972 
	C379.725861,423.995972 370.181915,423.995972 359.531494,423.995972 
	C361.880371,427.211914 356.865021,433.188538 365.720093,432.672729 
M570.639709,433.592255 
	C570.639709,447.367340 570.639709,461.142456 570.639709,474.804504 
	C579.945190,476.418121 580.066711,476.322021 580.067139,467.903168 
	C580.067749,455.409729 580.067322,442.916321 580.067322,430.422882 
	C580.067322,428.317474 580.067322,426.212067 580.067322,423.951843 
	C576.574280,423.951843 573.823181,423.951843 570.639771,423.951843 
	C570.639771,427.035614 570.639771,429.831726 570.639709,433.592255 
M402.700958,430.740906 
	C402.700958,445.476044 402.700958,460.211182 402.700958,475.124969 
	C406.053741,475.124969 408.794128,475.124969 411.793152,475.124969 
	C411.793152,457.949005 411.793152,441.083282 411.793152,424.029602 
	C408.732269,424.029602 405.858521,424.029602 402.701080,424.029602 
	C402.701080,426.203491 402.701080,428.010498 402.700958,430.740906 
z"/>
<path fill="#C1C2C3" opacity="1.000000" stroke="none" 
	d="
M816.500000,655.000000 
	C816.050049,611.350098 816.137573,567.700134 816.143066,524.050232 
	C816.158508,400.591919 816.140625,277.133636 816.135193,153.675323 
	C816.132996,104.358650 816.128967,55.041973 816.125854,5.725296 
	C816.125793,4.730919 816.125854,3.736543 816.125854,2.032653 
	C544.617920,2.032653 273.277374,2.032653 1.468410,2.016326 
	C1.166667,1.666667 1.315919,1.056198 1.502793,1.044456 
	C2.830883,0.961004 4.166667,1.000000 5.500000,1.000000 
	C276.333344,1.000000 547.166687,1.000000 818.000000,1.000000 
	C818.000000,217.500000 818.002014,434.000000 817.958679,650.500000 
	C817.958374,652.000061 817.333313,653.500000 816.500000,655.000000 
z"/>
<path fill="#D2D2D1" opacity="1.000000" stroke="none" 
	d="
M381.071472,198.072250 
	C374.257935,204.927811 367.692841,211.531815 361.035919,218.228165 
	C357.922699,214.899475 355.134644,211.918442 352.861420,209.487885 
	C371.194092,191.120575 389.825897,172.453537 408.918335,153.325027 
	C428.711090,173.436584 449.252686,194.309006 470.244263,215.638718 
	C477.541260,208.039322 484.191589,201.113358 490.576599,194.463745 
	C508.164948,212.065796 525.072083,228.986099 541.687683,245.614609 
	C525.082581,262.238434 508.176666,279.163391 491.677826,295.680817 
	C480.312927,284.322388 468.688843,272.704895 456.742889,260.765778 
	C459.409424,258.136017 462.330200,255.255539 465.810150,251.823593 
	C474.309357,260.646088 482.607727,269.260101 491.016754,277.988953 
	C501.987946,266.671936 512.378540,255.953842 522.671692,245.336227 
	C512.608276,235.326660 502.037842,224.812790 491.304077,214.136490 
	C488.131378,217.512100 484.668884,221.195969 480.854553,225.254242 
	C487.468567,231.563126 494.302551,238.081833 500.812469,244.291397 
	C495.371429,249.657089 490.684692,254.278900 485.703522,259.191071 
	C483.442657,256.962433 480.447449,254.009888 477.337280,250.944031 
	C478.967468,248.924301 480.293823,247.281036 481.794067,245.422318 
	C478.018402,241.908218 474.387421,238.528763 470.970428,235.348495 
	C446.724304,259.813141 422.293762,284.463867 397.905762,309.071655 
	C400.701904,311.815521 404.328186,315.374023 408.425415,319.394684 
	C423.288086,304.045776 438.444153,288.393860 454.016235,272.312317 
	C457.786682,276.370361 460.666046,279.469360 463.157013,282.150360 
	C444.830780,300.783020 426.408630,319.513214 407.336548,338.904175 
	C386.634430,317.920410 365.997223,297.002411 345.068939,275.789398 
	C337.834564,283.179230 331.224274,289.931549 324.980072,296.309906 
	C307.653107,278.917603 290.797058,261.998016 274.291229,245.429947 
	C290.507416,229.234558 307.409882,212.353760 324.143402,195.641693 
	C335.213898,206.729370 346.820038,218.353546 358.896912,230.449173 
	C356.089020,232.802185 352.935455,235.444870 349.466492,238.351898 
	C341.651184,230.394287 333.199127,221.788376 324.813934,213.250504 
	C313.542542,224.612732 303.043732,235.196182 292.565247,245.759155 
	C302.872101,255.905075 313.500488,266.367493 324.368958,277.066254 
	C327.507690,273.793518 331.031250,270.119476 335.198883,265.773926 
	C328.323700,259.433777 321.368164,253.019531 314.626984,246.802979 
	C320.118622,241.497604 324.839600,236.936752 329.667511,232.272614 
	C331.635406,234.498779 334.343994,237.562866 337.409851,241.031097 
	C336.707245,241.908844 335.404602,243.536148 333.921326,245.389099 
	C337.852356,248.696045 341.740479,251.966919 345.449097,255.086777 
	C368.823059,231.506607 393.272888,206.841095 417.932861,181.963577 
	C415.012024,179.100952 411.387390,175.548584 407.441956,171.681808 
	C398.701721,180.427658 390.010803,189.124176 381.071472,198.072250 
M388.657288,277.845428 
	C383.190063,272.549805 377.722809,267.254211 372.663300,262.353546 
	C375.985596,258.502686 378.649506,255.414902 381.855530,251.698761 
	C390.549286,260.766052 398.809875,269.381561 406.783752,277.698059 
	C424.902740,259.345123 442.383057,241.639099 459.621918,224.177643 
	C449.583313,214.132233 439.030090,203.571869 428.905792,193.440704 
	C425.354553,196.793488 421.659088,200.282455 417.507629,204.201920 
	C426.164185,212.569199 434.734070,220.852737 443.354645,229.185242 
	C439.747620,232.953186 436.825104,236.006088 433.343750,239.642761 
	C424.593201,230.822876 416.175110,222.338074 408.059052,214.157715 
	C390.509766,231.809097 372.979858,249.440979 355.712067,266.809204 
	C365.891693,277.028320 376.414551,287.592041 387.059296,298.278137 
	C390.529114,294.785248 394.123474,291.166962 398.709045,286.550873 
	C395.456757,283.757538 392.307007,281.052277 388.657288,277.845428 
z"/>
<path fill="#D2D2D1" opacity="1.000000" stroke="none" 
	d="
M336.224976,297.330078 
	C337.442352,296.187408 338.417175,295.291962 339.488373,294.307953 
	C361.972900,316.961884 384.357666,339.515289 406.882721,362.210083 
	C429.971771,338.917877 452.328827,316.364166 475.115967,293.376587 
	C478.740112,297.362366 481.588074,300.494507 483.828125,302.958130 
	C458.572174,328.569214 433.116699,354.382660 407.553894,380.304932 
	C382.109436,354.580505 356.710602,328.902161 329.708832,301.603302 
	C331.498840,300.454590 333.740631,299.015930 336.224976,297.330078 
z"/>
<path fill="#D1D1D1" opacity="1.000000" stroke="none" 
	d="
M449.626709,152.373444 
	C461.297363,164.058121 472.718597,175.492188 484.127533,186.938538 
	C484.344574,187.156296 484.415710,187.519470 484.738800,188.204865 
	C481.781342,190.817947 478.710754,193.531036 475.165283,196.663696 
	C453.370789,174.558380 430.998230,151.866760 407.935913,128.475555 
	C384.629730,152.083191 362.312347,174.689240 340.046722,197.242874 
	C329.351868,188.881134 329.343964,188.873230 338.229431,179.992218 
	C360.149445,158.083282 382.075714,136.180634 404.006958,114.282928 
	C405.159515,113.132133 406.381683,112.050995 408.182831,110.365234 
	C422.033905,124.406532 435.704956,138.265335 449.626709,152.373444 
z"/>
<path fill="#CBCBCB" opacity="1.000000" stroke="none" 
	d="
M290.344910,476.433044 
	C281.384125,474.323059 277.032562,469.054962 276.988647,460.538940 
	C276.950012,453.050354 276.958008,445.559967 277.080566,438.072571 
	C277.230499,428.910400 283.287292,422.651733 291.847137,422.636230 
	C300.428131,422.620697 306.335358,428.772522 306.521179,438.098602 
	C306.670349,445.584625 306.789154,453.076202 306.671539,460.561371 
	C306.514954,470.522278 300.669098,476.239105 290.344910,476.433044 
M295.258301,465.732666 
	C295.910583,464.080017 297.094513,462.436981 297.124512,460.773102 
	C297.265106,452.977936 297.141357,445.176056 296.998901,437.378632 
	C296.939850,434.147034 295.313751,431.816833 291.918762,431.798523 
	C288.572144,431.780457 286.722717,434.015991 286.672119,437.251312 
	C286.544922,445.380890 286.429260,453.521149 286.715942,461.642731 
	C286.883636,466.392853 289.869659,467.910217 295.258301,465.732666 
z"/>
<path fill="#CDCECE" opacity="1.000000" stroke="none" 
	d="
M325.582947,425.543732 
	C331.433899,421.656128 337.135162,421.430389 342.695099,425.116699 
	C348.525360,428.982208 349.596283,434.926300 349.228180,441.402130 
	C349.031494,444.862427 346.501984,444.118652 344.470612,444.141479 
	C342.395569,444.164825 339.849274,444.742249 339.785095,441.318298 
	C339.757080,439.822113 339.876373,438.294037 339.613525,436.837372 
	C339.053040,433.731323 337.366028,431.369049 333.919983,431.867249 
	C330.370941,432.380402 328.670105,435.199646 329.436951,438.438446 
	C329.949402,440.602814 331.732025,442.766113 333.511566,444.253540 
	C335.643158,446.035156 338.397858,447.060089 340.845551,448.476959 
	C348.340881,452.815643 350.969971,459.072205 348.449921,466.475616 
	C346.083435,473.427856 339.245422,477.501404 331.905060,476.331787 
	C324.879608,475.212341 319.879578,468.913483 319.646851,460.850647 
	C319.623108,460.029297 319.759338,459.203369 319.853546,457.951721 
	C322.781433,457.951721 325.650879,457.951721 328.764771,457.951721 
	C328.987854,459.617554 328.728699,461.541962 329.532898,462.770050 
	C330.695648,464.545624 332.474091,466.702362 334.282837,467.018097 
	C335.686462,467.263123 338.487671,465.220337 338.939697,463.685516 
	C339.452423,461.944672 338.670410,458.941559 337.328827,457.724823 
	C334.794006,455.425842 331.450531,454.021729 328.453186,452.228851 
	C318.119141,446.047516 316.721832,434.309967 325.582947,425.543732 
z"/>
<path fill="#CECFCE" opacity="1.000000" stroke="none" 
	d="
M552.221436,449.337158 
	C553.736267,458.064941 555.179688,466.367981 556.737915,475.331024 
	C552.291809,474.738312 547.532898,478.213593 546.180054,471.125183 
	C546.054810,470.468750 537.296387,470.404602 537.189148,470.960541 
	C535.883911,477.730103 531.177734,474.966278 526.612488,475.349335 
	C527.370239,471.159119 528.043762,467.470001 528.703735,463.778503 
	C530.843689,451.809143 533.188354,439.870544 535.003723,427.852081 
	C535.654663,423.542114 538.008057,423.382660 541.222351,423.633362 
	C544.302979,423.873627 547.983887,422.362671 548.616455,427.714478 
	C549.456299,434.820435 550.941895,441.850037 552.221436,449.337158 
M542.277832,443.500885 
	C540.758911,449.273346 539.239990,455.045807 537.611572,461.234558 
	C540.837952,461.234558 542.706116,461.234558 545.085632,461.234558 
	C544.200684,455.186859 543.385742,449.617401 542.277832,443.500885 
z"/>
<path fill="#CECFCE" opacity="1.000000" stroke="none" 
	d="
M264.382446,444.162659 
	C261.147858,453.462402 259.245239,454.714600 244.521698,457.219360 
	C244.521698,461.849091 244.308395,466.628510 244.586884,471.379089 
	C244.824265,475.428284 242.535614,475.484253 239.575470,475.519623 
	C236.660934,475.554413 234.895096,475.165405 234.928802,471.537140 
	C235.074112,455.887817 234.990952,440.236389 234.990952,423.438324 
	C242.139160,423.756958 249.003784,423.217377 255.471329,424.572693 
	C262.974976,426.145142 265.914124,433.558472 264.382446,444.162659 
M249.941864,432.576813 
	C248.186096,432.666138 246.430313,432.755432 244.385468,432.859436 
	C244.385468,437.038635 244.481964,440.678650 244.353653,444.310699 
	C244.258270,447.010651 245.560257,447.688171 247.998703,447.695587 
	C251.907959,447.707489 254.445602,445.959930 255.179916,442.192261 
	C255.983856,438.067413 255.977493,434.058868 249.941864,432.576813 
z"/>
<path fill="#D0D0D0" opacity="1.000000" stroke="none" 
	d="
M444.865845,423.650146 
	C447.656403,423.650787 449.969055,423.650787 452.649933,423.650787 
	C452.649933,426.581665 452.649933,429.139740 452.649933,432.398315 
	C447.834717,432.398315 442.968994,432.398315 438.566132,432.398315 
	C437.922424,433.341827 437.610901,433.590179 437.586853,433.863800 
	C436.648346,444.537415 436.651764,444.538605 447.090332,444.574402 
	C448.891388,444.580597 450.692535,444.575317 452.754150,444.575317 
	C452.754150,447.691254 452.754150,450.286591 452.754150,453.552765 
	C447.676666,453.552765 442.780823,453.552765 437.489075,453.552765 
	C437.489075,460.983307 437.489075,467.753815 437.489075,474.985077 
	C434.229095,474.985077 431.373260,474.985077 428.240753,474.985077 
	C428.240753,457.983795 428.240753,441.088593 428.240753,423.649536 
	C433.794800,423.649536 439.091370,423.649536 444.865845,423.650146 
z"/>
<path fill="#CECECE" opacity="1.000000" stroke="none" 
	d="
M489.988831,439.247681 
	C484.451782,450.773102 484.783478,462.784454 485.167511,475.090607 
	C481.876831,475.090607 479.140320,475.090607 475.260345,475.090607 
	C478.617310,457.092865 471.444580,440.948822 466.000580,424.486389 
	C474.443390,422.425598 474.813110,422.627563 476.978210,430.403473 
	C477.858032,433.563507 478.678772,436.739990 479.925049,441.399292 
	C481.050751,438.941681 481.760193,437.681061 482.214294,436.334351 
	C482.904358,434.287994 483.421356,432.183014 484.004517,430.100922 
	C486.064880,422.744476 486.165741,422.686340 494.915527,424.313446 
	C493.301727,429.200043 491.704926,434.035309 489.988831,439.247681 
z"/>
<path fill="#C9CACA" opacity="1.000000" stroke="none" 
	d="
M365.261017,432.672119 
	C356.865021,433.188538 361.880371,427.211914 359.531494,423.995972 
	C370.181915,423.995972 379.725861,423.995972 389.423676,423.995972 
	C389.423676,426.829865 389.423676,429.415344 389.423676,432.363861 
	C386.245544,432.558472 383.329041,432.737061 379.932373,432.945038 
	C379.932373,446.986145 379.932373,460.876007 379.932373,475.112640 
	C376.561066,475.112640 373.684021,475.112640 370.372742,475.112640 
	C370.372742,461.000641 370.372742,447.248444 370.372742,433.076813 
	C368.561371,432.919495 367.140717,432.796112 365.261017,432.672119 
z"/>
<path fill="#D0D0D0" opacity="1.000000" stroke="none" 
	d="
M570.639771,433.110046 
	C570.639771,429.831726 570.639771,427.035614 570.639771,423.951843 
	C573.823181,423.951843 576.574280,423.951843 580.067322,423.951843 
	C580.067322,426.212067 580.067322,428.317474 580.067322,430.422882 
	C580.067322,442.916321 580.067749,455.409729 580.067139,467.903168 
	C580.066711,476.322021 579.945190,476.418121 570.639709,474.804504 
	C570.639709,461.142456 570.639709,447.367340 570.639771,433.110046 
z"/>
<path fill="#D2D3D2" opacity="1.000000" stroke="none" 
	d="
M402.701019,430.279236 
	C402.701080,428.010498 402.701080,426.203491 402.701080,424.029602 
	C405.858521,424.029602 408.732269,424.029602 411.793152,424.029602 
	C411.793152,441.083282 411.793152,457.949005 411.793152,475.124969 
	C408.794128,475.124969 406.053741,475.124969 402.700958,475.124969 
	C402.700958,460.211182 402.700958,445.476044 402.701019,430.279236 
z"/>
<path fill="#1D252E" opacity="1.000000" stroke="none" 
	d="
M388.907288,278.096222 
	C392.307007,281.052277 395.456757,283.757538 398.709045,286.550873 
	C394.123474,291.166962 390.529114,294.785248 387.059296,298.278137 
	C376.414551,287.592041 365.891693,277.028320 355.712067,266.809204 
	C372.979858,249.440979 390.509766,231.809097 408.059052,214.157715 
	C416.175110,222.338074 424.593201,230.822876 433.343750,239.642761 
	C436.825104,236.006088 439.747620,232.953186 443.354645,229.185242 
	C434.734070,220.852737 426.164185,212.569199 417.507629,204.201920 
	C421.659088,200.282455 425.354553,196.793488 428.905792,193.440704 
	C439.030090,203.571869 449.583313,214.132233 459.621918,224.177643 
	C442.383057,241.639099 424.902740,259.345123 406.783752,277.698059 
	C398.809875,269.381561 390.549286,260.766052 381.855530,251.698761 
	C378.649506,255.414902 375.985596,258.502686 372.663300,262.353546 
	C377.722809,267.254211 383.190063,272.549805 388.907288,278.096222 
z"/>
<path fill="#202731" opacity="1.000000" stroke="none" 
	d="
M294.945099,466.009949 
	C289.869659,467.910217 286.883636,466.392853 286.715942,461.642731 
	C286.429260,453.521149 286.544922,445.380890 286.672119,437.251312 
	C286.722717,434.015991 288.572144,431.780457 291.918762,431.798523 
	C295.313751,431.816833 296.939850,434.147034 296.998901,437.378632 
	C297.141357,445.176056 297.265106,452.977936 297.124512,460.773102 
	C297.094513,462.436981 295.910583,464.080017 294.945099,466.009949 
z"/>
<path fill="#3E454C" opacity="1.000000" stroke="none" 
	d="
M542.424316,443.774414 
	C543.385742,449.617401 544.200684,455.186859 545.085632,461.234558 
	C542.706116,461.234558 540.837952,461.234558 537.611572,461.234558 
	C539.239990,455.045807 540.758911,449.273346 542.424316,443.774414 
z"/>
<path fill="#2D343D" opacity="1.000000" stroke="none" 
	d="
M250.330063,432.612122 
	C255.977493,434.058868 255.983856,438.067413 255.179916,442.192261 
	C254.445602,445.959930 251.907959,447.707489 247.998703,447.695587 
	C245.560257,447.688171 244.258270,447.010651 244.353653,444.310699 
	C244.481964,440.678650 244.385468,437.038635 244.385468,432.859436 
	C246.430313,432.755432 248.186096,432.666138 250.330063,432.612122 
z"/>
</svg>